<svg width="25" height="25" viewBox="0 0 25 25" fill="none" xmlns="http://www.w3.org/2000/svg">
<path fill-rule="evenodd" clip-rule="evenodd" d="M17.0455 9.09135C17.0455 10.2969 16.5666 11.453 15.7142 12.3055C14.8617 13.1579 13.7056 13.6368 12.5 13.6368C11.2945 13.6368 10.1384 13.1579 9.28592 12.3055C8.43348 11.453 7.95459 10.2969 7.95459 9.09135C7.95459 7.88582 8.43348 6.72967 9.28592 5.87723C10.1384 5.02479 11.2945 4.5459 12.5 4.5459C13.7056 4.5459 14.8617 5.02479 15.7142 5.87723C16.5666 6.72967 17.0455 7.88582 17.0455 9.09135V9.09135ZM14.7728 9.09135C14.7728 9.69412 14.5333 10.2722 14.1071 10.6984C13.6809 11.1246 13.1028 11.3641 12.5 11.3641C11.8973 11.3641 11.3192 11.1246 10.893 10.6984C10.4668 10.2722 10.2273 9.69412 10.2273 9.09135C10.2273 8.48859 10.4668 7.91051 10.893 7.48429C11.3192 7.05807 11.8973 6.81863 12.5 6.81863C13.1028 6.81863 13.6809 7.05807 14.1071 7.48429C14.5333 7.91051 14.7728 8.48859 14.7728 9.09135V9.09135Z" fill="#9494A0"/>
<path fill-rule="evenodd" clip-rule="evenodd" d="M12.5 0C5.59659 0 0 5.59659 0 12.5C0 19.4034 5.59659 25 12.5 25C19.4034 25 25 19.4034 25 12.5C25 5.59659 19.4034 0 12.5 0ZM2.27273 12.5C2.27273 14.875 3.08295 17.0614 4.44091 18.7977C5.39458 17.5453 6.62489 16.5304 8.03572 15.8322C9.44655 15.134 10.9997 14.7714 12.5739 14.7727C14.1276 14.7713 15.6613 15.1245 17.0579 15.8054C18.4545 16.4864 19.6772 17.4772 20.633 18.7023C21.6176 17.4109 22.2805 15.9037 22.5669 14.3052C22.8534 12.7068 22.755 11.0631 22.2801 9.51021C21.8052 7.95731 20.9673 6.53983 19.8358 5.37504C18.7043 4.21026 17.3116 3.33166 15.7732 2.81194C14.2347 2.29222 12.5945 2.14633 10.9885 2.38633C9.38241 2.62633 7.85658 3.24533 6.53724 4.19211C5.21789 5.13888 4.14297 6.38622 3.4014 7.8309C2.65983 9.27559 2.27293 10.8761 2.27273 12.5V12.5ZM12.5 22.7273C10.1522 22.7308 7.8753 21.9231 6.05455 20.4409C6.78742 19.3917 7.76288 18.5351 8.89795 17.944C10.033 17.3528 11.2941 17.0445 12.5739 17.0455C13.8377 17.0444 15.0835 17.345 16.2079 17.9221C17.3322 18.4992 18.3027 19.3362 19.0386 20.3636C17.2037 21.894 14.8893 22.7306 12.5 22.7273V22.7273Z" fill="#9494A0"/>
</svg>
