<svg width="25" height="25" viewBox="0 0 25 25" fill="none" xmlns="http://www.w3.org/2000/svg">
<path d="M17.7083 0C15.8406 0 14.1479 0.35 12.825 1.00937C11.5031 1.66875 10.4167 2.74271 10.4167 4.16667V8.33333C10.4167 8.46771 10.4615 8.59792 10.4823 8.72396C9.43961 8.459 8.36747 8.32774 7.29167 8.33333C5.42396 8.33333 3.73125 8.68333 2.40833 9.34271C1.08646 10.0021 0 11.076 0 12.5V20.8333C0 22.2573 1.08646 23.3312 2.40938 23.9906C3.73125 24.65 5.42396 25 7.29167 25C9.15937 25 10.8521 24.65 12.175 23.9906C13.4958 23.3312 14.5833 22.2573 14.5833 20.8333V20.4104C15.6023 20.6859 16.6528 20.8281 17.7083 20.8333C19.576 20.8333 21.2687 20.4833 22.5917 19.824C23.9125 19.1646 25 18.0906 25 16.6667V4.16667C25 2.74271 23.9135 1.66875 22.5906 1.00937C21.2698 0.35 19.5771 0 17.7083 0ZM17.7083 2.08333C19.2948 2.08333 20.7073 2.425 21.6469 2.89688C22.5875 3.36875 22.9167 3.86562 22.9167 4.16667C22.9167 4.46875 22.5875 4.96458 21.6469 5.43646C20.7083 5.90833 19.2948 6.25 17.7083 6.25C16.1219 6.25 14.7094 5.90833 13.7698 5.43646C12.8292 4.96458 12.5 4.46771 12.5 4.16667C12.5 3.86458 12.8292 3.36875 13.7698 2.89688C14.7083 2.425 16.1219 2.08333 17.7083 2.08333ZM12.5 7.12917C12.6094 7.18958 12.7115 7.26771 12.826 7.32396C14.1479 7.98333 15.8406 8.33333 17.7083 8.33333C19.576 8.33333 21.2687 7.98333 22.5917 7.32396C22.7052 7.26771 22.8073 7.18958 22.9167 7.12917V8.33333C22.9167 8.63542 22.5875 9.13125 21.6469 9.60312C20.7073 10.075 19.2948 10.4167 17.7083 10.4167C16.1219 10.4167 14.7094 10.075 13.7698 9.60312C12.8292 9.13125 12.5 8.63437 12.5 8.33333V7.12917ZM7.29167 10.4167C8.87812 10.4167 10.2906 10.7583 11.2302 11.2302C12.1708 11.7021 12.5 12.199 12.5 12.5C12.5 12.8021 12.1708 13.2979 11.2302 13.7698C10.2906 14.2417 8.87812 14.5833 7.29167 14.5833C5.70521 14.5833 4.29271 14.2417 3.35312 13.7698C2.4125 13.2979 2.08333 12.801 2.08333 12.5C2.08333 12.1979 2.4125 11.7021 3.35312 11.2302C4.29167 10.7583 5.70521 10.4167 7.29167 10.4167ZM22.9167 11.2958V12.5C22.9167 12.8021 22.5875 13.2979 21.6469 13.7698C20.7073 14.2417 19.2948 14.5833 17.7083 14.5833C16.6472 14.5891 15.5921 14.4241 14.5833 14.0948V12.5C14.5833 12.3656 14.5385 12.2354 14.5177 12.1094C15.4865 12.3615 16.5604 12.5 17.7083 12.5C19.576 12.5 21.2687 12.15 22.5917 11.4906C22.7052 11.4344 22.8073 11.3562 22.9167 11.2958ZM2.08333 15.4625C2.19271 15.5229 2.29479 15.601 2.40938 15.6573C3.73125 16.3167 5.42396 16.6667 7.29167 16.6667C9.15937 16.6667 10.8521 16.3167 12.175 15.6573C12.2885 15.601 12.3906 15.5229 12.5 15.4625V16.6667C12.5 16.9687 12.1708 17.4646 11.2302 17.9365C10.2906 18.4083 8.87812 18.75 7.29167 18.75C5.70521 18.75 4.29271 18.4083 3.35312 17.9365C2.4125 17.4646 2.08333 16.9677 2.08333 16.6667V15.4625ZM22.9167 15.4625V16.6667C22.9167 16.9687 22.5875 17.4646 21.6469 17.9365C20.7073 18.4083 19.2948 18.75 17.7083 18.75C16.524 18.75 15.4542 18.5833 14.5833 18.2937V16.276C15.5396 16.5281 16.5812 16.6667 17.7083 16.6667C19.576 16.6667 21.2687 16.3167 22.5917 15.6573C22.7052 15.601 22.8073 15.5229 22.9167 15.4625ZM2.08333 19.6292C2.19271 19.6896 2.29479 19.7677 2.40938 19.824C3.73125 20.4833 5.42396 20.8333 7.29167 20.8333C9.15937 20.8333 10.8521 20.4833 12.175 19.824C12.2885 19.7677 12.3906 19.6896 12.5 19.6292V20.8333C12.5 21.1354 12.1708 21.6312 11.2302 22.1031C10.2906 22.575 8.87812 22.9167 7.29167 22.9167C5.70521 22.9167 4.29271 22.575 3.35312 22.1031C2.4125 21.6312 2.08333 21.1344 2.08333 20.8333V19.6292Z" fill="#9494A0"/>
</svg>
